<svg xmlns="http://www.w3.org/2000/svg" viewBox="0 0 501.4 32.9">
  <path fill="#e85c16" d="M11.8 28.08c6.91 0 11.73-4.77 11.73-11.59 0-6.63-4.93-11.44-11.73-11.44S.08 9.87.08 16.49c0 6.83 4.82 11.59 11.72 11.59zM3.74 16.49c0-5.19 3.32-8.82 8.06-8.82s8.06 3.63 8.06 8.82c0 5.37-3.24 9-8.06 9s-8.06-3.71-8.06-9zm44.59 8.45V8a3.78 3.78 0 0 1 .81-2.17v-.07l-.12-.42h-5l-.02.44v.07A3.77 3.77 0 0 1 44.82 8v7.27H33.08V8a3.77 3.77 0 0 1 .81-2.17v-.07l-.12-.42h-5l-.12.42v.07A3.77 3.77 0 0 1 29.57 8v16.94c0 .68-.12.93-.84 2.33v.06l.11.44h5l.11-.45v-.06c-.75-1.39-.84-1.65-.84-2.33v-7.16h11.71v7.17c0 .7-.15 1-.85 2.33v.06l.11.44h5l.11-.45v-.06c-.76-1.38-.86-1.64-.86-2.32zM56.51 27l-.19.36.11.44h5l.11-.44-.16-.36c-.68-1.27-.68-1.27-.68-2V8c0-.7 0-.81.81-2.17v-.07l-.12-.42h-5l-.12.42v.07c.81 1.36.81 1.47.81 2.17v16.94c.11.76.11.76-.57 2.06zM78.74 5.06C71.95 5.06 67 9.87 67 16.49c0 6.82 4.82 11.59 11.73 11.59s11.73-4.77 11.73-11.59c.01-6.62-4.92-11.43-11.72-11.43zm0 2.61c4.75 0 8.06 3.63 8.06 8.82 0 5.37-3.24 9-8.06 9s-8.06-3.69-8.06-9S74 7.67 78.74 7.67zM127 28.87h.8V8.01c0-.75 0-.75.68-2l.19-.36-.11-.44h-4.54l-.11.44.19.36c.68 1.27.68 1.27.68 2v13.38L109.5 5.17h-5.65V6c2.07.27 3.71 2.42 3.71 2.42v16.13c0 .84 0 1-.84 2.57v.06l.11.44h4.57l.11-.44v-.06c-.84-1.58-.84-1.73-.84-2.57V11.6zm17.91-24c-6.8 0-11.73 4.81-11.73 11.44 0 6.82 4.82 11.59 11.73 11.59s11.73-4.77 11.73-11.59c-.01-6.63-4.94-11.44-11.73-11.44zM153 16.3c0 5.37-3.24 9-8.06 9s-8.06-3.69-8.06-9 3.32-8.82 8.06-8.82S153 11.11 153 16.3zm13.4 10.81l-.4-.71a2 2 0 0 1-.49-1.52v-7.66s.07-.1.16-.1h3.5l2.36 4.79c1.85 3.45 3.19 5.94 6 5.94a2.84 2.84 0 0 0 2.17-.94l.05-.05v-.62h-.43c-1.71 0-3.22-2.74-5-5.92l-2.06-3.83a5.6 5.6 0 0 0 4.34-5.48c0-2.71-1.83-5.88-7-5.88h-8.43l-.06.46v.06a3.49 3.49 0 0 1 .8 2.4v16.83a1.87 1.87 0 0 1-.37 1.38c-.12.21-.27.48-.48.86v.05l.06.42h5.21v-.47zm-.77-19.51h3.46c2.52 0 4 1.38 4 3.7s-1.94 3.39-3.86 3.39h-3.63a.48.48 0 0 1-.13 0v-7a.22.22 0 0 1 .16-.09zm39.72 17.15v-7.17h11.74v7.17c0 .7-.15 1-.84 2.33v.06l.11.44h5l.11-.44v-.06c-.75-1.39-.84-1.65-.84-2.33V7.82a3.77 3.77 0 0 1 .81-2.17v-.07l-.12-.42h-5l-.12.42v.07a3.77 3.77 0 0 1 .81 2.17v7.27h-11.66V7.82a3.77 3.77 0 0 1 .81-2.17v-.07l-.12-.42h-5l-.12.42v.07a3.77 3.77 0 0 1 .81 2.17v16.93c0 .7-.15 1-.85 2.33v.06l.11.44h5l.11-.45v-.06c-.66-1.38-.75-1.64-.75-2.32zm58.21 3.14a2.84 2.84 0 0 0 2.16-.94l.05-.05v-.62h-.43c-1.71 0-3.22-2.74-5-5.92l-2.06-3.83a5.6 5.6 0 0 0 4.34-5.48c0-2.71-1.83-5.88-7-5.88h-8.43l-.06.46v.06a3.49 3.49 0 0 1 .8 2.4v16.79a1.87 1.87 0 0 1-.37 1.38c-.12.21-.27.48-.48.86v.05l.06.42h5.21v-.47l-.35-.72a2 2 0 0 1-.49-1.52v-7.66s.07-.1.16-.1h3.5l2.36 4.79c1.88 3.49 3.22 5.98 6.03 5.98zm-4.41-16.59c0 2.34-1.94 3.39-3.86 3.39h-3.64a.48.48 0 0 1-.13 0v-7a.22.22 0 0 1 .16-.08h3.46c2.51-.01 4.01 1.39 4.01 3.69zm30.65 17.57h.8V8.01c0-.75 0-.75.68-2l.19-.36-.11-.44h-4.54l-.11.44.19.36c.68 1.27.68 1.27.68 2v13.38l-15.3-16.22h-5.65V6c2.07.27 3.71 2.42 3.71 2.42v16.13c0 .84 0 1-.84 2.57v.06l.11.44h4.57l.11-.44v-.06c-.84-1.58-.84-1.73-.84-2.57V11.6zm78.06-4.08V7.86c0-.7 0-.81.81-2.17v-.07l-.12-.42h-5l-.12.42v.07c.81 1.36.81 1.47.81 2.17v16.93c0 .75 0 .75-.68 2l-.19.36.11.44h5l.11-.44-.19-.36c-.54-1.24-.54-1.24-.54-2zm19.71-19.25v.05c.34 1.13.32 1.38.19 1.75l-5.24 14-5.36-14c-.14-.38-.17-.66.1-1.7v-.43h-5.21v.39a11.21 11.21 0 0 1 1.68 2.74l7.61 19.55h1.45l8-20.1a8.14 8.14 0 0 1 1.37-2.18v-.4h-4.62v.33zm40.34 14.87l-2.06-3.83a5.6 5.6 0 0 0 4.34-5.48c0-2.71-1.83-5.88-7-5.88h-8.43l-.06.46v.06a3.49 3.49 0 0 1 .8 2.4v16.77a1.87 1.87 0 0 1-.37 1.38c-.12.21-.27.48-.48.86v.05l.06.42H420v-.47l-.42-.67a2 2 0 0 1-.49-1.52v-7.7s.07-.1.16-.1h3.5l2.36 4.79c1.85 3.45 3.19 5.94 6 5.94a2.84 2.84 0 0 0 2.17-.94l.05-.05v-.62h-.43c-1.74.04-3.24-2.7-4.99-5.87zM419.2 7.64h3.46c2.52 0 4 1.38 4 3.7s-1.94 3.39-3.86 3.39h-3.64a.48.48 0 0 1-.13 0v-7a.22.22 0 0 1 .17-.09zm24.96 7.18c-2.24-1.18-4.36-2.29-4.36-4.64a2.82 2.82 0 0 1 3-2.93c2.14 0 3.86.9 5.73 3l.07.08 1-.21-1.39-4.56-1.21.07a12.36 12.36 0 0 0-4.35-.73c-3.56 0-6.14 2.42-6.14 5.76 0 4 2.93 5.46 5.52 6.8 2.29 1.18 4.45 2.29 4.45 4.89a3.44 3.44 0 0 1-3.65 3.3c-2.84 0-4.4-1.36-6.12-3.71l-.07-.1-.8.23.86 4.94 1.08-.17a14.9 14.9 0 0 0 5 1.09c3.43 0 7.07-2.16 7.07-6.16s-3.03-5.55-5.69-6.95zm15.59 9.97V7.86c0-.7 0-.81.81-2.17v-.07l-.12-.42h-5l-.12.42v.07c.81 1.36.81 1.47.81 2.17v16.93c0 .75 0 .75-.68 2l-.19.36.11.44h5l.11-.44-.19-.36c-.54-1.24-.54-1.24-.54-2zm5.02-19.58l-.37 2.9.23.23h.1a13.27 13.27 0 0 1 3.13-.66h3.06v16.87c0 .84 0 1-.84 2.57v.06l.11.44h5l.11-.44v-.06c-.84-1.58-.84-1.73-.84-2.57V7.64h3.83a5.62 5.62 0 0 1 2.11.65h.08l.34-.17.76-2.71-.25-.25h-16.56zm31.84 0v.45a1.72 1.72 0 0 1-.16 1.49L492.66 14l-4.3-7.18c-.1-.19-.42-.75-.22-1.07v-.54h-5.05v.47l.28.25a7 7 0 0 1 1.32 1.38l5.78 9.48v7.82c0 .83 0 .93-.84 2.51v.06l.11.44h5l.11-.44v-.06c-.84-1.58-.84-1.68-.84-2.51v-7.82l5.44-9.14a7.94 7.94 0 0 1 1.75-1.91h.05l.07-.48h-4.71zm-141.05 23.7h.8v-1.29L356.4 8c0-.75 0-.75.68-2l.19-.36-.11-.44h-4.54l-.11.44.19.36c.68 1.27.68 1.27.68 2v13.43L338 5.21h-5.6V6c2.07.27 3.71 2.42 3.71 2.42v16.17c0 .84 0 1-.84 2.57v.06l.11.44h4.57l.11-.44v-.06c-.84-1.58-.84-1.73-.84-2.57V11.64zM197.23 8.95l.9-3.53-.25-.25h-17.22l-.45 3.59.33.2a5.42 5.42 0 0 1 3.2-1h3.35v16.55c0 .84 0 1-.84 2.57v.06l.11.44h5l.11-.44v-.06c-.84-1.58-.84-1.73-.84-2.57V7.92h4.22a2.91 2.91 0 0 1 2 1.15zm131.09-3.7h-4.87l-.12.41v.06a3.63 3.63 0 0 1 .79 2.36v15.33a8.16 8.16 0 0 1-5.59 1.91 5.46 5.46 0 0 1-5.53-5.53V8.09a3.62 3.62 0 0 1 .79-2.36v-.06l-.12-.41h-4.86l-.12.41v.06a3.63 3.63 0 0 1 .79 2.36V19.8c0 4.81 3.63 8 9 8.1a12.43 12.43 0 0 0 9-3.48V8.09a3.63 3.63 0 0 1 .79-2.36v-.06zm66.9 21.91v-.06c.85-1.58.85-1.75.85-2.58V8a3.71 3.71 0 0 0-.81-2.42v-.07l.13-.38H408l.73 3.26-.38.37-.11-.05a14.55 14.55 0 0 0-3.33-1.15h-5.11c-.16 0-.16.05-.16.1v7.22h3c.65 0 .76 0 2-.63l.34.08v3.43l-.34.08c-1.21-.63-1.33-.63-2-.63h-3v7.89s0 .1.16.1h6.68a13.85 13.85 0 0 0 3.29-1.36l.11-.06.42.36-.7 3.49h-14.24zm-167.53-.03v-.06c.85-1.58.85-1.75.85-2.58V8a3.71 3.71 0 0 0-.81-2.42v-.07l.13-.38h12.59l.73 3.26-.38.37-.11-.05a14.55 14.55 0 0 0-3.33-1.15h-5.11c-.16 0-.16.05-.16.1v7.24h3c.65 0 .76 0 2-.63l.34.08v3.43l-.34.08c-1.21-.63-1.33-.63-2-.63h-3v7.9s0 .1.16.1h6.68a13.87 13.87 0 0 0 3.29-1.35l.11-.06.42.36-.7 3.49h-14.23z"/>
</svg>
