<?xml version="1.0" encoding="utf-8"?>
<!-- Generator: Adobe Illustrator 16.0.0, SVG Export Plug-In . SVG Version: 6.00 Build 0)  -->
<!DOCTYPE svg PUBLIC "-//W3C//DTD SVG 1.1//EN" "http://www.w3.org/Graphics/SVG/1.1/DTD/svg11.dtd">
<svg version="1.1" id="Layer_1" xmlns="http://www.w3.org/2000/svg" xmlns:xlink="http://www.w3.org/1999/xlink" x="0px" y="0px"
	 width="1374px" height="725px" viewBox="0 0 1374 725" enable-background="new 0 0 1374 725" xml:space="preserve">
<circle fill-rule="evenodd" clip-rule="evenodd" fill="#202020" cx="20.028" cy="620.846" r="5.419"/>
<circle fill-rule="evenodd" clip-rule="evenodd" fill="#202020" cx="108.691" cy="620.846" r="5.419"/>
<circle fill-rule="evenodd" clip-rule="evenodd" fill="#202020" cx="197.354" cy="620.846" r="5.419"/>
<circle fill-rule="evenodd" clip-rule="evenodd" fill="#202020" cx="286.016" cy="620.846" r="5.419"/>
<circle fill-rule="evenodd" clip-rule="evenodd" fill="#202020" cx="374.679" cy="620.846" r="5.419"/>
<circle fill-rule="evenodd" clip-rule="evenodd" fill="#202020" cx="463.343" cy="620.846" r="5.419"/>
<circle fill-rule="evenodd" clip-rule="evenodd" fill="#202020" cx="552.006" cy="620.846" r="5.419"/>
<circle fill-rule="evenodd" clip-rule="evenodd" fill="#202020" cx="640.669" cy="620.846" r="5.419"/>
<circle fill-rule="evenodd" clip-rule="evenodd" fill="#202020" cx="729.331" cy="620.846" r="5.419"/>
<circle fill-rule="evenodd" clip-rule="evenodd" fill="#202020" cx="817.995" cy="620.846" r="5.419"/>
<circle fill-rule="evenodd" clip-rule="evenodd" fill="#202020" cx="906.658" cy="620.846" r="5.419"/>
<circle fill-rule="evenodd" clip-rule="evenodd" fill="#202020" cx="995.32" cy="620.846" r="5.418"/>
<circle fill-rule="evenodd" clip-rule="evenodd" fill="#202020" cx="1083.983" cy="620.846" r="5.418"/>
<circle fill-rule="evenodd" clip-rule="evenodd" fill="#202020" cx="1172.646" cy="620.846" r="5.418"/>
<circle fill-rule="evenodd" clip-rule="evenodd" fill="#202020" cx="1261.309" cy="620.846" r="5.418"/>
<circle fill-rule="evenodd" clip-rule="evenodd" fill="#202020" cx="1349.972" cy="620.846" r="5.419"/>
<circle fill-rule="evenodd" clip-rule="evenodd" fill="#202020" cx="1261.309" cy="535.691" r="5.418"/>
<circle fill-rule="evenodd" clip-rule="evenodd" fill="#202020" cx="1349.972" cy="535.691" r="5.419"/>
<circle fill-rule="evenodd" clip-rule="evenodd" fill="#202020" cx="1261.309" cy="448.989" r="5.418"/>
<circle fill-rule="evenodd" clip-rule="evenodd" fill="#202020" cx="1349.972" cy="448.989" r="5.419"/>
<circle fill-rule="evenodd" clip-rule="evenodd" fill="#202020" cx="1261.309" cy="363.837" r="5.418"/>
<circle fill-rule="evenodd" clip-rule="evenodd" fill="#202020" cx="1349.972" cy="363.837" r="5.419"/>
<circle fill-rule="evenodd" clip-rule="evenodd" fill="#202020" cx="1261.309" cy="277.135" r="5.418"/>
<circle fill-rule="evenodd" clip-rule="evenodd" fill="#202020" cx="1349.972" cy="277.135" r="5.419"/>
<circle fill-rule="evenodd" clip-rule="evenodd" fill="#202020" cx="1261.309" cy="188.885" r="5.418"/>
<circle fill-rule="evenodd" clip-rule="evenodd" fill="#202020" cx="1349.972" cy="188.885" r="5.419"/>
<circle fill-rule="evenodd" clip-rule="evenodd" fill="#202020" cx="1261.309" cy="105.28" r="5.418"/>
<circle fill-rule="evenodd" clip-rule="evenodd" fill="#202020" cx="1349.972" cy="105.28" r="5.419"/>
<circle fill-rule="evenodd" clip-rule="evenodd" fill="#202020" cx="1261.309" cy="18.578" r="5.418"/>
<circle fill-rule="evenodd" clip-rule="evenodd" fill="#202020" cx="1349.972" cy="18.578" r="5.419"/>
<circle fill-rule="evenodd" clip-rule="evenodd" fill="#202020" cx="20.028" cy="707.547" r="5.419"/>
<circle fill-rule="evenodd" clip-rule="evenodd" fill="#202020" cx="108.691" cy="707.547" r="5.419"/>
<circle fill-rule="evenodd" clip-rule="evenodd" fill="#202020" cx="197.354" cy="707.547" r="5.419"/>
<circle fill-rule="evenodd" clip-rule="evenodd" fill="#202020" cx="286.016" cy="707.547" r="5.419"/>
<circle fill-rule="evenodd" clip-rule="evenodd" fill="#202020" cx="374.679" cy="707.547" r="5.419"/>
<circle fill-rule="evenodd" clip-rule="evenodd" fill="#202020" cx="463.343" cy="707.547" r="5.419"/>
<circle fill-rule="evenodd" clip-rule="evenodd" fill="#202020" cx="552.006" cy="707.547" r="5.419"/>
<circle fill-rule="evenodd" clip-rule="evenodd" fill="#202020" cx="640.669" cy="707.547" r="5.419"/>
<circle fill-rule="evenodd" clip-rule="evenodd" fill="#202020" cx="729.331" cy="707.547" r="5.419"/>
<circle fill-rule="evenodd" clip-rule="evenodd" fill="#202020" cx="817.995" cy="707.547" r="5.419"/>
<circle fill-rule="evenodd" clip-rule="evenodd" fill="#202020" cx="906.658" cy="707.547" r="5.419"/>
<circle fill-rule="evenodd" clip-rule="evenodd" fill="#202020" cx="995.32" cy="707.547" r="5.418"/>
<circle fill-rule="evenodd" clip-rule="evenodd" fill="#202020" cx="1083.983" cy="707.547" r="5.418"/>
<circle fill-rule="evenodd" clip-rule="evenodd" fill="#202020" cx="1172.646" cy="707.547" r="5.418"/>
<circle fill-rule="evenodd" clip-rule="evenodd" fill="#202020" cx="1261.309" cy="707.547" r="5.418"/>
<circle fill-rule="evenodd" clip-rule="evenodd" fill="#202020" cx="1349.972" cy="707.547" r="5.419"/>
</svg>
