<svg xmlns="http://www.w3.org/2000/svg">
  <symbol viewBox="0 0 72 72" id="dots">
    <path class="st0" d="M72,24.5c0,0.8-0.7,1.5-1.5,1.5c-0.8,0-1.5-0.7-1.5-1.5s0.7-1.5,1.5-1.5C71.3,23,72,23.7,72,24.5"/>
    <path class="st0" d="M72,1.5C72,2.3,71.3,3,70.5,3S69,2.3,69,1.5S69.7,0,70.5,0S72,0.7,72,1.5"/>
    <path class="st0" d="M72,70.5c0,0.8-0.7,1.5-1.5,1.5c-0.8,0-1.5-0.7-1.5-1.5s0.7-1.5,1.5-1.5C71.3,69,72,69.7,72,70.5"/>
    <path class="st0" d="M72,47.5c0,0.8-0.7,1.5-1.5,1.5S69,48.3,69,47.5s0.7-1.5,1.5-1.5S72,46.7,72,47.5"/>
    <path class="st0" d="M49,24.5c0,0.8-0.7,1.5-1.5,1.5c-0.8,0-1.5-0.7-1.5-1.5s0.7-1.5,1.5-1.5C48.3,23,49,23.7,49,24.5"/>
    <circle class="st0" cx="47.5" cy="1.5" r="1.5"/>
    <path class="st0" d="M49,70.5c0,0.8-0.7,1.5-1.5,1.5c-0.8,0-1.5-0.7-1.5-1.5s0.7-1.5,1.5-1.5C48.3,69,49,69.7,49,70.5"/>
    <circle class="st0" cx="47.5" cy="47.5" r="1.5"/>
    <path class="st0" d="M26,24.5c0,0.8-0.7,1.5-1.5,1.5c-0.8,0-1.5-0.7-1.5-1.5s0.7-1.5,1.5-1.5C25.3,23,26,23.7,26,24.5"/>
    <path class="st0" d="M26,1.5C26,2.3,25.3,3,24.5,3S23,2.3,23,1.5S23.7,0,24.5,0S26,0.7,26,1.5"/>
    <path class="st0" d="M26,70.5c0,0.8-0.7,1.5-1.5,1.5c-0.8,0-1.5-0.7-1.5-1.5s0.7-1.5,1.5-1.5C25.3,69,26,69.7,26,70.5"/>
    <path class="st0" d="M26,47.5c0,0.8-0.7,1.5-1.5,1.5S23,48.3,23,47.5s0.7-1.5,1.5-1.5S26,46.7,26,47.5"/>
    <path class="st0" d="M3,24.5C3,25.3,2.3,26,1.5,26C0.7,26,0,25.3,0,24.5S0.7,23,1.5,23C2.3,23,3,23.7,3,24.5"/>
    <circle class="st0" cx="1.5" cy="1.5" r="1.5"/>
    <path class="st0" d="M3,70.5C3,71.3,2.3,72,1.5,72C0.7,72,0,71.3,0,70.5S0.7,69,1.5,69C2.3,69,3,69.7,3,70.5"/>
    <circle class="st0" cx="1.5" cy="47.5" r="1.5"/>
  </symbol>
</svg>
