<svg xmlns="http://www.w3.org/2000/svg" id="graphic" viewBox="0 0 45 593.293">
    <path fill="#e85c16" d="M22.5 397h1v196.293h-1zm0-397h1v144h-1z"/>
    <path fill="#e85c16" d="M45 204h-1v-59.5H1V204H0v-60.5h45V204zm0 193.5H0V337h1v59.5h43V337h1v60.5z"/>
    <path fill="#fff"
          d="M17.557 192.081h-1.372v-3.5h1.372v.952l5.684-1.722v-.028l-5.684-1.596v.91h-1.372v-3.598h1.372v.924l5.684-1.694v-.028l-5.684-1.666v.938h-1.372v-3.332h1.372v.742l8.736 2.744v1.246l-6.202 1.946v.028l6.202 1.862v1.246l-8.736 2.884v.742zm1.61 5.948l-2.982-1.162v-1.778l2.982 1.162v1.778zm0 3.374l-2.982-1.162v-1.778l2.982 1.162v1.778zm4.088 3.246h-3.808a3.007 3.007 0 1 0 0 5.992h3.808a3.007 3.007 0 1 0 0-5.992zm.14 4.312h-4.088c-.9 0-1.582-.392-1.582-1.316s.686-1.316 1.582-1.316H23.4c.9 0 1.582.392 1.582 1.316s-.691 1.316-1.582 1.316zm2.898 4.8v5.839h-1.54l-3.276-2.716A4.313 4.313 0 0 0 19 215.539a1.2 1.2 0 0 0-1.274 1.2c0 .546.168 1.316 1.568 1.316h1.064v1.568h-1.135a2.7 2.7 0 0 1-3.038-2.814 2.774 2.774 0 0 1 2.716-2.954 4.346 4.346 0 0 1 2.814 1.316l3.038 2.352v-2.2h-1.33v-1.568zm-7.126 11.8l-2.982-1.162v-1.778l2.982 1.162v1.778zm4.06 2.98H19.2a3 3 0 1 0 .266 5.978c2.17 0 3.08-1.442 3.08-2.618a2.539 2.539 0 0 0-.644-1.68h1.162c1.358 0 1.918.546 1.918 1.26 0 .9-.658 1.26-1.47 1.274v1.568a2.771 2.771 0 0 0 3.01-2.87c-.005-1.512-.999-2.912-3.295-2.912zm-3.864 4.3c-1.022 0-1.638-.63-1.638-1.3a1.458 1.458 0 0 1 1.638-1.316A1.458 1.458 0 0 1 21 231.537c0 .672-.615 1.302-1.637 1.302zm5.6 4.686v.994h-1.036v-.994h-1.4v.994h-6.118v1.512L22.4 243.6h1.526v-3.514h1.036v1.2h1.33v-3.766zm-2.436 4.732l-3.57-2.128v-.042h3.57zm-.672 15.214h-1.246c-.014-.966-.42-1.456-1.414-1.456-.8 0-1.47.322-1.47 1.218 0 .924.672 1.19 1.694 1.19h.7v1.568h-.434c-3.066 0-3.5-1.848-3.5-2.828a2.817 2.817 0 0 1 3.052-2.828 2.3 2.3 0 0 1 1.988.952h.028a2.416 2.416 0 0 1 2.184-1.092 2.828 2.828 0 0 1 3.08 2.926c0 2.17-1.834 3.066-3.682 2.968v-1.568c1.106-.014 2.142-.182 2.142-1.4 0-.882-.8-1.246-1.568-1.246-1.078 0-1.568.523-1.554 1.596zm1.778 5.682a2.52 2.52 0 0 0-2.352 1.316h-.028a2.614 2.614 0 0 0-2.324-1.246 2.917 2.917 0 0 0 0 5.824 2.614 2.614 0 0 0 2.324-1.246h.028a2.52 2.52 0 0 0 2.352 1.316 2.984 2.984 0 0 0 0-5.964zm-4.494 4.214c-.952 0-1.414-.532-1.414-1.232s.462-1.232 1.414-1.232 1.428.532 1.428 1.232-.462 1.232-1.428 1.232zm4.368.07c-1.008 0-1.47-.574-1.47-1.3s.462-1.3 1.47-1.3 1.47.574 1.47 1.3-.462 1.3-1.47 1.3zm3.346 13.142l-2.982-1.162v-1.778l2.982 1.162v1.778zm-.56 4.926l-7.7 4.13v.028h6.328v-1.134h1.372v3.752h-1.372v-.938h-7.364v.938h-1.372v-3.318l6.23-3.22v-.028h-4.858v1.036h-1.372v-3.766h1.372v1.05h8.736v1.47zm-7.126 12.906l-2.982-1.162v-1.778l2.982 1.162v1.778zm0 3.374l-2.982-1.162v-1.778l2.982 1.162v1.778zm4.466 3.26a2.52 2.52 0 0 0-2.352 1.316h-.028a2.614 2.614 0 0 0-2.324-1.246 2.917 2.917 0 0 0 0 5.824 2.614 2.614 0 0 0 2.324-1.246h.028a2.52 2.52 0 0 0 2.352 1.316 2.984 2.984 0 0 0 0-5.964zm-4.494 4.214c-.952 0-1.414-.532-1.414-1.232s.462-1.232 1.414-1.232 1.428.532 1.428 1.232-.462 1.232-1.428 1.232zm4.368.07c-1.008 0-1.47-.574-1.47-1.3s.462-1.3 1.47-1.3 1.47.574 1.47 1.3-.462 1.3-1.47 1.3zm-4.34 7.614l-2.982-1.162v-1.778l2.982 1.162v1.778zm4.074 2.98c-2.17 0-3.08 1.442-3.08 2.618a2.539 2.539 0 0 0 .644 1.68h-1.162c-1.358 0-1.918-.546-1.918-1.26 0-.9.658-1.26 1.47-1.274v-1.568a2.771 2.771 0 0 0-3.01 2.87c0 1.512.994 2.912 3.29 2.912h4.032a3 3 0 1 0-.266-5.978zm.1 4.3a1.458 1.458 0 0 1-1.638-1.316c0-.672.616-1.3 1.638-1.3s1.638.63 1.638 1.3a1.458 1.458 0 0 1-1.64 1.314zm1.622 4.686v.994h-1.036v-.994h-1.4v.994h-6.118v1.512l5.992 3.57h1.526v-3.514h1.036v1.2h1.33v-3.766zm-2.436 4.732l-3.57-2.128v-.042h3.57zm-4.522 4.31a2.126 2.126 0 0 0-2.044 2.282 2.049 2.049 0 1 0 2.044-2.282zm0 3.444a1.176 1.176 0 1 1 0-2.352 1.176 1.176 0 1 1 0 2.352zm5.25 4.128h-3.808a3.007 3.007 0 1 0 0 5.992h3.808a3.007 3.007 0 1 0 0-5.992zm.14 4.312h-4.088c-.9 0-1.582-.392-1.582-1.316s.686-1.316 1.582-1.316H23.4c.9 0 1.582.392 1.582 1.316s-.691 1.316-1.582 1.316zm1.568 4.674v.994h-1.036v-.994h-1.4v.994h-6.118v1.512l5.992 3.57h1.526v-3.514h1.036v1.2h1.33v-3.766zm-2.436 4.732l-3.57-2.128v-.042h3.57zm-4.522-112.674a2.126 2.126 0 0 0-2.044 2.282 2.049 2.049 0 1 0 2.044-2.282zm0 3.444a1.176 1.176 0 1 1 0-2.352 1.176 1.176 0 0 1 0 2.352z"/>
</svg>