<svg xmlns="http://www.w3.org/2000/svg">
  <symbol id="graphic" viewBox="0 0 954.828 965.098">
    <path d="M770.725,70a14.14,14.14,0,0,0,11.187-14.626l-27.859,3.982A14.16,14.16,0,0,0,770.725,70Zm165.45-11a12.534,12.534,0,0,0-9.457,4.129c-2.338,2.579-3.108,5.688-2.61,6.7,1.664,3.378,5.766,6.29,9.732,9.107.39.277.737.523,1.057.748A73.986,73.986,0,0,0,936.175,59Zm-6.924,38.726c-2.587-1.668-3.611-2.376-6.136-4.17-5.306-3.768-11.909-8.459-15.636-16.016-4.283-8.682-1.155-17.93,3.412-24.165-21.337-3.535-49.414-5.95-71.042-5.051a69.93,69.93,0,0,1-2.59,23.264,68.4,68.4,0,0,1-10.093,20.908l-.2.281a51.96,51.96,0,0,0,8.042,69.866l38.288-14.483c.835-.324,1.638-.619,2.424-.867l-.007-.054A90.4,90.4,0,0,0,929.251,97.724ZM769.019,213.838q.613-.664,1.217-1.344l1.662-1.866c13.561-15.268,26.461-29.784,44.926-40.09a70.318,70.318,0,0,1-4.73-88.6l.119-.163a50.223,50.223,0,0,0,7.356-15.264A51.668,51.668,0,0,0,821.516,50c-9.986,1.127-22.037,2.577-22.12,2.868a31.754,31.754,0,1,1-60.628-9.536l52.8-7.289,26.326-2.984A52.076,52.076,0,0,0,812.2,22.471a239.4,239.4,0,0,0-161.453,26.6l-5.9,3.314L627.581,36.138A8.737,8.737,0,0,0,613.4,45.557l8.648,22.877-5.106,4.172q-1.907,1.557-3.772,3.148A105.769,105.769,0,0,0,726.06,240.369l.03.084a91.754,91.754,0,0,0,39.219-22.806Zm-297.36-12.351q5.136,1.1,10.262,2.563c31.8,9.12,60.366,30.373,80.425,59.843a169.709,169.709,0,0,1,17.832,33.917q3.293-17.451,8.23-34.677a407.824,407.824,0,0,1,15.555-44.368,124.2,124.2,0,0,1-27.628-102.986A257.836,257.836,0,0,1,471.659,201.487Zm141.4,238.751a344.718,344.718,0,0,1,5.268-169.4c2.907-10.139,6.294-20.2,10.106-30.026a123.493,123.493,0,0,1-10.441-7.988c-4.564,11.584-8.587,23.421-12.006,35.347a359.934,359.934,0,0,0-13.53,119.3,546.15,546.15,0,0,1-2.211,86.117Zm14.878-21.752A329.051,329.051,0,0,1,636.263,274.6c2.371-8.269,5.081-16.494,8.093-24.565a123.2,123.2,0,0,1-12.782-7.144c-3.654,9.487-6.907,19.188-9.71,28.964a341.113,341.113,0,0,0-5.948,164.206Zm15.078-22.044a302.628,302.628,0,0,1,10.234-115.7c2.323-8.1,4.994-16.149,7.973-24.032a124.385,124.385,0,0,1-13.472-5.1c-2.938,7.892-5.583,15.933-7.9,24.016A325.408,325.408,0,0,0,631,414.012Zm17.077-24.967a292.383,292.383,0,0,1,11.379-85.3c2.434-8.489,5.261-16.905,8.443-25.142a124.855,124.855,0,0,1-15.127-3.265c-2.98,7.867-5.651,15.9-7.97,23.993A299.071,299.071,0,0,0,646.272,391.68Zm17.586-25.711a253.236,253.236,0,0,1,19.1-83.334,123.9,123.9,0,0,1-13.088-.879c-3.272,8.4-6.171,16.985-8.656,25.651a288.955,288.955,0,0,0-11.271,78.9Zm30.854-45.109,30.916-45.2q-4.17,1.549-8.462,2.75l-.092-.077q-3.9,1.06-7.847,1.859A299.274,299.274,0,0,0,709.226,298.2Q708.875,299.424,708.532,300.655Zm-5.18,7.574q1.353-5.472,2.9-10.886a304.066,304.066,0,0,1,13.106-36.667,123.41,123.41,0,0,1-18.247,1.74,249.782,249.782,0,0,0-18.994,76.853ZM157.84,568.271q-1.8,5.241-3.336,10.591a208.741,208.741,0,0,0-7.482,75.283l-3.444.442a212.533,212.533,0,0,1,7.618-76.674,217.01,217.01,0,0,1,7.631-22.063,392.161,392.161,0,0,1,7.515-47.56,223.939,223.939,0,0,0-39.188,140.944l-3.621.279a227.5,227.5,0,0,1,44.951-150.375q1.778-7.209,3.832-14.376,2.683-9.356,5.8-18.521a236.961,236.961,0,0,0-69.475,177.542l-3.665.159a240.573,240.573,0,0,1,75.854-185.415q5.406-14.871,11.951-29.176A252.306,252.306,0,0,0,90.04,639.076l-3.726.073a255.99,255.99,0,0,1,109.7-216.687q5.925-12.317,12.683-24.159A270.943,270.943,0,0,0,72.462,637.672l-3.671.055A274.635,274.635,0,0,1,212.334,392.07q8.286-13.914,17.7-27.091A292.078,292.078,0,0,0,52.982,633.233l-3.659.007A295.751,295.751,0,0,1,234.2,359.271q7.9-10.637,16.529-20.738A310.9,310.9,0,0,0,35.366,628.483l-3.672-.067A314.57,314.57,0,0,1,255.319,333.253q8.459-9.548,17.567-18.564A326.055,326.055,0,0,0,31.02,543.132C-18.636,716.3,82.243,897.7,255.894,947.493l-5.048,17.6C67.46,912.512-39.072,720.949,13.368,538.071A344.49,344.49,0,0,1,298.542,291.438c.341-.283,1.556-.209,1.556-.209l.256-.034a151.857,151.857,0,0,1,120.081-91.731A240.261,240.261,0,0,0,556.6,111.577l5.033-6.977a248.471,248.471,0,0,1,37.925-41.4q.285-.372.572-.744l-3.946-10.438a27.112,27.112,0,0,1,44.01-29.235l7.472,7.031a257.812,257.812,0,0,1,171.6-24.668l3.289.667,2.089,2.625a70.4,70.4,0,0,1,12.214,23.2c9.4-.309,19.733-.24,27,.178,18.757,1.05,29.287,2.828,46.362,5.279,14.048,2.017,27.532,3.9,41.961,6.6l.916,4.13c2.906,13.583,2.129,28.8-2.233,44.011a108.794,108.794,0,0,1-69.034,72.76c-2.473.943-45.89,17.372-49.771,18.846-19.138,8.721-31.772,22.945-46.4,39.4L784,224.722q-2.41,2.709-4.96,5.243l-94.6,138.3L667.22,544.883a238.757,238.757,0,0,0,47.344,160.188l8.976,12.162c18.854,25.664,31.488,46.024,40.3,74.2l5.326,17.031-17.484,5.522-5.329-17.029c-8.093-25.861-19.446-44.131-37.568-68.8l-8.911-12.076A257.11,257.11,0,0,1,648.95,543.5l.02-.248,14-143.6L585.448,512.99c-.9,6.542-1.838,13.1-2.78,19.7-2.625,18.39-5.37,37.625-7.71,58.718L697.013,733.533a191.511,191.511,0,0,1,37.458,67.27l3.73,11.779-3.787.226-3.452-10.91a187.88,187.88,0,0,0-36.744-65.987l-119.8-139.5q-.991,9.324-1.856,19.163L683.166,744.521a172.968,172.968,0,0,1,33.693,60.845l2.2,6.994-3.5,1.1-2.2-6.993a169.309,169.309,0,0,0-32.98-59.561L572.124,620.7q-.779,9.531-1.4,19.614l99.464,116.221a154.867,154.867,0,0,1,29.555,52.524l-3.49,1.145A151.262,151.262,0,0,0,667.4,758.923L570.415,645.6q-.6,10.88-.98,22.475l86.45,100.368a136.975,136.975,0,0,1,21.391,33.742l-3.369,1.469a133.3,133.3,0,0,0-20.814-32.839l-83.816-97.306q-.263,9.932-.329,20.436l74.091,86.868a120.248,120.248,0,0,1,8.415,11.125L648.4,794a116.663,116.663,0,0,0-8.155-10.786L568.93,699.594q-.008,11.614.252,23.977l49.166,57.9-2.766,2.387-46.261-54.48q.122,4.59.284,9.29l-18.281.683q-.573-16.636-.665-31.951l0-.815c-.451-75.848,7.126-128.937,13.907-176.452,6.75-47.287,12.578-88.126,9.632-141.6-.554-10.03-1.1-30.081-1.1-30.081.744-62.026-40.629-120.823-96.234-136.767a132.506,132.506,0,0,0-53-4.164c-3.934.9-11.941,2.044-11.941,2.044a133.028,133.028,0,0,0-89.9,191.405c11.02,21.19,28.269,37.933,46.526,55.658,10.843,10.526,22.053,21.408,31.819,33.3a475.307,475.307,0,0,1,96.8,200,471.939,471.939,0,0,1-7.724,229.3l-17.65-5.061a453.529,453.529,0,0,0,7.428-220.359,456.856,456.856,0,0,0-93.047-192.246c-9.111-11.094-19.941-21.609-30.419-31.779-10.095-9.8-20.377-19.785-29.65-30.7l6.256,25.241A420.718,420.718,0,0,1,454.9,903.262l-3.516-1.008a417.057,417.057,0,0,0-117.432-421.5l7.793,31.447A402.694,402.694,0,0,1,402.61,595.35c51.743,93.7,63.963,202.068,34.41,305.131l-3.513-1.008c29.282-102.121,17.173-209.495-34.1-302.345a399.665,399.665,0,0,0-55.859-77.635l6.835,27.579a388.191,388.191,0,0,1,37.373,55.647c49.481,89.469,61.2,192.921,32.987,291.3l-3.519-1.009c27.939-97.434,16.335-199.895-32.672-288.5a385.16,385.16,0,0,0-32.029-48.791l11.238,45.345Q367.5,607.2,371,613.465c47.61,85.457,59.012,184.2,32.1,278.04l-3.549-1.017c26.637-92.9,15.351-190.647-31.781-275.243q-.437-.783-.876-1.565l23.836,96.185-17.908,4.366L291.652,379.1a153.481,153.481,0,0,1-.567-56.432,373.508,373.508,0,0,0-97.877,383.545l-17.544,5.54A389.541,389.541,0,0,1,157.84,568.271Z" fill-rule="evenodd"/>
  </symbol>
</svg>
