<svg fill="#f696a1" xmlns="http://www.w3.org/2000/svg" viewBox="0 0 77.93 55">
  <path d="M33.7,55H19.48L7.12,34.13C3.61,28.13.93,23,.93,16.48.93,7.39,8.65,0,18.14,0a16.8,16.8,0,0,1,7.74,31.7ZM20.05,54H32.31L24.65,31.17l.41-.18A15.79,15.79,0,0,0,18.14,1C9.2,1,1.93,7.94,1.93,16.48c0,6.3,2.62,11.28,6.05,17.14Z"/><polygon points="26.12 51 12.14 51 0 29.75 0.87 29.25 12.72 50 24.75 50 20.98 38.38 21.93 38.07 26.12 51"/><path d="M27.13,25.85l-.72-.7a12.5,12.5,0,0,0,3.52-8.76A12.21,12.21,0,0,0,17.93,4a12.22,12.22,0,0,0-12,12.39h-1A13.22,13.22,0,0,1,17.93,3a13.22,13.22,0,0,1,13,13.39A13.52,13.52,0,0,1,27.13,25.85Z"/><path d="M76.7,55H62.48L50.12,34.13c-3.51-6-6.19-11.1-6.19-17.65C43.93,7.39,51.65,0,61.14,0a16.8,16.8,0,0,1,7.74,31.7ZM63.05,54H75.31L67.65,31.17l.41-.18A15.79,15.79,0,0,0,61.14,1C52.2,1,44.93,7.94,44.93,16.48c0,6.3,2.62,11.28,6,17.14Z"/><polygon points="69.12 51 55.14 51 43 29.75 43.87 29.25 55.72 50 67.75 50 63.98 38.38 64.94 38.07 69.12 51"/><path d="M70.13,25.85l-.72-.7a12.5,12.5,0,0,0,3.52-8.76,12,12,0,1,0-24,0h-1a13,13,0,1,1,26,0A13.52,13.52,0,0,1,70.13,25.85Z"/>
</svg>
