<svg xmlns="http://www.w3.org/2000/svg" id="graphic" viewBox="0 0 17.409 137.38">
  <path fill="#fff" d="M.292,17.086a1,1,0,0,0,1.415,0l7-6.985,7,6.985a1,1,0,0,0,1.413-1.416L10.121,8.69l6.995-6.981A1,1,0,0,0,15.7.293l-7,6.984-7-6.984A1,1,0,1,0,.294,1.709l7,6.981L.294,15.672A1,1,0,0,0,.292,17.086Z"/>
  <path fill="#fff" d="M15.7,30.293l-7,6.984-7-6.984A1,1,0,1,0,.294,31.709l7,6.981L.294,45.672a1,1,0,0,0,1.413,1.416l7-6.985,7,6.985a1,1,0,0,0,1.413-1.416L10.121,38.69l6.995-6.981A1,1,0,0,0,15.7,30.293Z"/>
  <path fill="#fff" d="M15.7,60.293l-7,6.984-7-6.984A1,1,0,1,0,.294,61.709l7,6.981L.294,75.672a1,1,0,0,0,1.413,1.416l7-6.985,7,6.985a1,1,0,0,0,1.413-1.416L10.121,68.69l6.995-6.981A1,1,0,0,0,15.7,60.293Z"/>
  <path fill="#fff" d="M15.7,90.293l-7,6.984-7-6.984A1,1,0,1,0,.294,91.709l7,6.981L.294,105.672a1,1,0,0,0,1.413,1.416l7-6.985,7,6.985a1,1,0,0,0,1.413-1.416L10.121,98.69l6.995-6.981A1,1,0,0,0,15.7,90.293Z"/>
  <path fill="#fff" d="M17.117,120.294a1,1,0,0,0-1.414,0l-7,6.984-7-6.984a1,1,0,1,0-1.413,1.416l7,6.981L.294,135.672a1,1,0,0,0,1.413,1.416l7-6.985,7,6.985a1,1,0,0,0,1.413-1.416l-6.995-6.982,6.995-6.981A1,1,0,0,0,17.117,120.294Z"/>
</svg>