<svg xmlns="http://www.w3.org/2000/svg" viewBox="0 0 627.77 260.95">
  <style>
    .cls-1 {
      fill: #e85c16;
      fill-rule:evenodd;
    }
  </style>
  <path class="cls-1" d="M71.5,155h54.27l-14-33.48c-6.18-14.62-12.68-37-13.32-39.32-.33,1-6.83,24-13,39.32ZM0,223,97.18,0h3.9L202.15,223H154.37L142,193.05H56.22L43.88,223Z"/><path class="cls-1" d="M332.65,233.28h14c34,0,49.5-20.25,49.5-48.83s-15.53-48.82-49.5-48.82h-14ZM301.15,261V108h47c47,0,80.54,31.28,80.54,76.5S395.43,261,348.18,261Z"/><path class="cls-1" d="M547.38,122.15h33.39l-8.59-20.6c-3.8-9-7.8-22.8-8.21-24.2-.2.6-4.2,14.8-8,24.2Zm-44,41.8,59.8-137.2h2.4L627.77,164H598.38l-7.61-18.4H538L530.38,164Z"/>
</svg>
