<svg xmlns="http://www.w3.org/2000/svg">
  <symbol id="graphic" viewBox="0 0 254 45">
    <path fill="#e85c16" d="M193.5 45v-1H253V1h-59.5V0H254v45h-60.5zM0 45V0h60.5v1H1v43h59.5v1H0z"/>
    <path fill="#fff" fill-rule="evenodd" d="M205.419 17.557v-1.372h3.5v1.372h-.952l1.722 5.684h.028l1.596-5.684h-.91v-1.372h3.598v1.372h-.924l1.694 5.684h.028l1.666-5.684h-.938v-1.372h3.332v1.372h-.742l-2.744 8.736h-1.246l-1.946-6.202h-.028l-1.862 6.202h-1.246l-2.884-8.736h-.742zm-5.948 1.61l1.162-2.982h1.778l-1.162 2.982h-1.778zm-3.374 0l1.162-2.982h1.778l-1.162 2.982h-1.778zm-3.246 4.088v-3.808a3.007 3.007 0 1 0-5.992 0v3.808a3.007 3.007 0 1 0 5.992 0zm-4.312.14v-4.088c0-.9.392-1.582 1.316-1.582s1.316.686 1.316 1.582V23.4c0 .9-.392 1.582-1.316 1.582s-1.316-.691-1.316-1.582zm-4.8 2.898H177.9v-1.54l2.716-3.276A4.313 4.313 0 0 0 181.961 19a1.2 1.2 0 0 0-1.2-1.274c-.546 0-1.316.168-1.316 1.568v1.064h-1.568v-1.135a2.7 2.7 0 0 1 2.814-3.038 2.774 2.774 0 0 1 2.954 2.716 4.346 4.346 0 0 1-1.316 2.814l-2.352 3.038h2.2v-1.33h1.568zm-11.8-7.126l1.162-2.982h1.778l-1.162 2.982h-1.778zm-2.98 4.06V19.2a3 3 0 1 0-5.978.266c0 2.17 1.442 3.08 2.618 3.08a2.539 2.539 0 0 0 1.68-.644v1.162c0 1.358-.546 1.918-1.26 1.918-.9 0-1.26-.658-1.274-1.47h-1.568a2.771 2.771 0 0 0 2.87 3.01c1.512-.005 2.912-.999 2.912-3.295zm-4.3-3.864c0-1.022.63-1.638 1.3-1.638a1.458 1.458 0 0 1 1.316 1.638A1.458 1.458 0 0 1 165.963 21c-.672 0-1.302-.615-1.302-1.637zm-4.686 5.6h-.994v-1.036h.994v-1.4h-.994v-6.118h-1.512L153.9 22.4v1.526h3.514v1.036h-1.2v1.33h3.766zm-4.732-2.436l2.128-3.57h.042v3.57zm-15.214-.672v-1.246c.966-.014 1.456-.42 1.456-1.414 0-.8-.322-1.47-1.218-1.47-.924 0-1.19.672-1.19 1.694v.7h-1.568v-.434c0-3.066 1.848-3.5 2.828-3.5a2.817 2.817 0 0 1 2.828 3.052 2.3 2.3 0 0 1-.952 1.988v.028a2.416 2.416 0 0 1 1.092 2.184 2.828 2.828 0 0 1-2.926 3.08c-2.17 0-3.066-1.834-2.968-3.682h1.568c.014 1.106.182 2.142 1.4 2.142.882 0 1.246-.8 1.246-1.568 0-1.078-.523-1.568-1.596-1.554zm-5.682 1.778a2.52 2.52 0 0 0-1.316-2.352v-.028a2.614 2.614 0 0 0 1.246-2.324 2.917 2.917 0 0 0-5.824 0 2.614 2.614 0 0 0 1.246 2.324v.028a2.52 2.52 0 0 0-1.316 2.352 2.984 2.984 0 0 0 5.964 0zm-4.214-4.494c0-.952.532-1.414 1.232-1.414s1.232.462 1.232 1.414-.532 1.428-1.232 1.428-1.232-.462-1.232-1.428zm-.07 4.368c0-1.008.574-1.47 1.3-1.47s1.3.462 1.3 1.47-.574 1.47-1.3 1.47-1.3-.462-1.3-1.47zm-13.142 3.346l1.162-2.982h1.778l-1.162 2.982h-1.778zm-4.926-.56l-4.13-7.7h-.028v6.328h1.134v1.372h-3.752v-1.372h.938v-7.364h-.938v-1.372h3.318l3.22 6.23h.028v-4.858h-1.036v-1.372h3.766v1.372h-1.05v8.736h-1.47zm-12.906-7.126l1.162-2.982h1.778l-1.162 2.982h-1.778zm-3.374 0l1.162-2.982h1.778l-1.162 2.982h-1.778zm-3.26 4.466a2.52 2.52 0 0 0-1.316-2.352v-.028a2.614 2.614 0 0 0 1.246-2.324 2.917 2.917 0 0 0-5.824 0 2.614 2.614 0 0 0 1.246 2.324v.028a2.52 2.52 0 0 0-1.316 2.352 2.984 2.984 0 0 0 5.964 0zm-4.214-4.494c0-.952.532-1.414 1.232-1.414s1.232.462 1.232 1.414-.532 1.428-1.232 1.428-1.232-.462-1.232-1.428zm-.07 4.368c0-1.008.574-1.47 1.3-1.47s1.3.462 1.3 1.47-.574 1.47-1.3 1.47-1.3-.462-1.3-1.47zm-7.614-4.34l1.162-2.982h1.778l-1.162 2.982h-1.778zm-2.98 4.074c0-2.17-1.442-3.08-2.618-3.08a2.539 2.539 0 0 0-1.68.644v-1.162c0-1.358.546-1.918 1.26-1.918.9 0 1.26.658 1.274 1.47h1.568a2.771 2.771 0 0 0-2.87-3.01c-1.512 0-2.912.994-2.912 3.29v4.032a3 3 0 1 0 5.978-.266zm-4.3.1a1.458 1.458 0 0 1 1.318-1.641c.672 0 1.3.616 1.3 1.638s-.63 1.638-1.3 1.638a1.458 1.458 0 0 1-1.316-1.637zm-4.686 1.622H67.6v-1.036h.994v-1.4H67.6v-6.118h-1.517l-3.57 5.991v1.526h3.514v1.036h-1.2v1.33h3.766zm-4.732-2.436l2.128-3.57h.042v3.57zm-4.31-4.522a2.126 2.126 0 0 0-2.282-2.044 2.049 2.049 0 1 0 2.282 2.044zm-3.444 0a1.176 1.176 0 1 1 2.352 0 1.176 1.176 0 0 1-2.352 0zm-4.128 5.25v-3.808a3.007 3.007 0 1 0-5.992 0v3.808a3.007 3.007 0 1 0 5.992 0zm-4.312.14v-4.088c0-.9.392-1.582 1.316-1.582s1.316.686 1.316 1.582V23.4c0 .9-.392 1.582-1.316 1.582s-1.316-.691-1.316-1.582zm-4.674 1.568H42v-1.036h.994v-1.4H42v-6.118h-1.517l-3.57 5.991v1.526h3.514v1.036h-1.2v1.33h3.766zm-4.732-2.436l2.128-3.57h.042v3.57zm112.674-4.522a2.126 2.126 0 0 0-2.282-2.044 2.049 2.049 0 1 0 2.282 2.044zm-3.444 0a1.176 1.176 0 1 1 2.352 0 1.176 1.176 0 1 1-2.352 0z"/>
  </symbol>
</svg>