<svg xmlns="http://www.w3.org/2000/svg" viewBox="0 0 107 107">
  <path d="M101.974,30.878a53.544,53.544,0,1,0,1.764,40.89A53.547,53.547,0,0,0,101.974,30.878Zm-96.84,5a51.469,51.469,0,0,1,95.036-4.158A51.495,51.495,0,1,1,6.83,75.246,51.149,51.149,0,0,1,5.134,35.879Z" fill="#333132"/><path d="M40.814,26.116a30.443,30.443,0,0,1,27.417.908l.478-.871a31.313,31.313,0,0,0-45.8,21.354l.974.194A30.442,30.442,0,0,1,40.814,26.116Z" fill="#333132"/><path d="M84.289,59.906l-.972-.2A30.319,30.319,0,0,1,39.711,80.521l-.455.883a31.311,31.311,0,0,0,45.033-21.5Z" fill="#333132"/><path d="M27.614,23.839a1.359,1.359,0,1,0-1.8-.657A1.359,1.359,0,0,0,27.614,23.839Z" fill="#333132"/><path d="M85.443,82.369l-2-3.94.326-.335-.557-.542-1.434,1.475.558.542.432-.444.532,1.06-1.213,1.248-1.075-.5.437-.45-.557-.542-1.474,1.515.558.542.305-.313L84.246,83.6l-.431.445.557.542,2.066-2.125-.557-.543Zm-.821.354-1.84-.89.919-.946.932,1.824Z" fill="#333132"/><polygon points="61.786 95.674 61.275 91.525 61.883 91.45 61.787 90.678 59.485 90.961 59.58 91.733 60.251 91.65 60.474 93.466 58.762 93.676 58.873 94.574 60.585 94.363 60.761 95.8 58.852 96.035 58.762 95.3 57.856 95.413 58.041 96.918 62.488 96.371 62.393 95.6 61.786 95.674" fill="#333132"/><polygon points="73.677 91.49 71.959 87.678 72.516 87.427 72.197 86.718 68.171 88.534 68.876 90.098 69.708 89.723 69.322 88.868 71.018 88.103 71.771 89.77 70.313 90.426 70.685 91.252 72.142 90.595 72.737 91.913 71.042 92.679 70.737 92.004 69.905 92.379 70.529 93.763 74.555 91.947 74.236 91.237 73.677 91.49" fill="#333132"/><polygon points="79.545 86.748 80.012 87.43 79.415 87.838 77.051 84.389 77.623 83.999 77.183 83.357 75.19 84.722 75.629 85.363 76.2 84.972 78.563 88.422 77.966 88.831 77.499 88.149 76.745 88.665 77.651 89.988 81.203 87.555 80.297 86.232 79.545 86.748" fill="#333132"/><path d="M43.66,90.855l.61.182-.522,1.753-.594-.177c-.4-.121-.944-.34-.79-.857l.573-1.927-1.522-.453-.222.745.534.159-.371,1.241a.811.811,0,0,0,.417,1.078l-.005.015a1.28,1.28,0,0,0-1.232.993,1.238,1.238,0,0,0,.021.819,1.994,1.994,0,0,0,1.513,1.129l2.36.7.222-.745-.587-.175,1.193-4.006.587.174.222-.745-2.184-.651Zm-.583,4.189-.526-.157c-.518-.154-1.212-.361-1.01-1.039.221-.739.8-.667,1.345-.5l.64.191Z" fill="#333132"/><path d="M16.768,62.113a2.468,2.468,0,0,0-1.057-1.564l.592-.118-.164-.817-1.846.369-.12-.6-.825.165.545,2.726.824-.164L14.456,60.8a1.667,1.667,0,0,1,1.364,1.429,1.911,1.911,0,0,1-1.645,2.355,1.948,1.948,0,0,1-2.356-1.524A1.9,1.9,0,0,1,11.908,62a1.223,1.223,0,0,1,.735-.738l-.156-.786-1.948.388.164.817.38-.076a2.5,2.5,0,0,0-.2,1.653,3.014,3.014,0,0,0,3.5,2.339A2.845,2.845,0,0,0,16.768,62.113Z" fill="#333132"/><path d="M20.893,76.189a1.925,1.925,0,0,0,.594-2.794,1.89,1.89,0,0,0-2.758-.689L16.1,74.231l-.287-.495-.673.39L16.25,76.05l.672-.389-.31-.537,2.256-1.306c.591-.343,1.268-.854,1.8.067.59,1.019-.191,1.352-.783,1.694l-2.255,1.307-.311-.537-.673.389,1.115,1.925.672-.389-.286-.5Z" fill="#333132"/><path d="M51.745,91.218a3,3,0,1,0-.44,5.974,2.962,2.962,0,0,0,3.223-2.775A2.884,2.884,0,0,0,51.745,91.218Zm-.4,5.021a1.966,1.966,0,0,1-1.8-2.149,2.011,2.011,0,0,1,2.189-1.919,1.911,1.911,0,0,1,1.778,2.06A1.986,1.986,0,0,1,51.343,96.239Z" fill="#333132"/><path d="M32.7,84.959a2.995,2.995,0,1,0-3.5,4.858,2.96,2.96,0,0,0,4.2-.674A2.885,2.885,0,0,0,32.7,84.959Zm-.077,3.49a1.986,1.986,0,0,1-2.9.578,1.967,1.967,0,0,1-.41-2.775,2.01,2.01,0,0,1,2.87-.488A1.91,1.91,0,0,1,32.627,88.449Z" fill="#333132"/><polygon points="26.557 80.095 25.976 80.611 26.402 81.093 23.716 83.476 23.705 83.464 25.418 78.811 24.865 78.187 21.155 81.477 20.76 81.031 20.178 81.546 21.596 83.145 22.178 82.63 21.787 82.189 23.851 80.359 23.862 80.371 22.429 84.085 23.679 85.493 24.26 84.978 23.907 84.58 27.035 81.805 27.388 82.204 27.97 81.688 26.557 80.095" fill="#333132"/><path d="M75.008,20.853l-.5-.363.972-.681,1.411,1.018-.34,1.137-.509-.367-.455.63L77.3,23.464l.454-.631-.354-.256,1.317-4.2.5.362.454-.631-2.4-1.734L76.815,17l.509.367-3.605,2.555-.38-.274-.455.631,1.669,1.2Zm2.774-2.732.012.009-.613,1.949-1.069-.771Z" fill="#333132"/><path d="M43.546,16.792a3,3,0,1,0-1.465-5.808A2.962,2.962,0,0,0,39.9,14.632,2.885,2.885,0,0,0,43.546,16.792Zm-1.2-4.892a1.966,1.966,0,0,1,2.387,1.472,2.009,2.009,0,0,1-1.474,2.51,1.909,1.909,0,0,1-2.334-1.394A1.986,1.986,0,0,1,42.345,11.9Z" fill="#333132"/><path d="M91.133,74.63l-3.5-2.278.334-.514-.653-.423-1.242,1.911.652.424.347-.534,1.533,1-.338.52c-.23.353-.593.809-1.046.515l-1.685-1.1-.866,1.332.652.424.3-.466,1.087.706a.808.808,0,0,0,1.15-.094l.014.009a1.278,1.278,0,0,0,.6,1.462,1.219,1.219,0,0,0,.791.211,2,2,0,0,0,1.512-1.13l1.341-2.065-.652-.424Zm-.861,1.324c-.3.454-.689,1.06-1.283.675-.646-.42-.414-.953-.1-1.432l.363-.56,1.321.858Z" fill="#333132"/><polygon points="71.305 17.706 70.477 17.324 70.091 18.161 68.849 17.588 70.601 13.792 71.236 14.085 71.563 13.379 69.405 12.384 69.08 13.089 69.664 13.36 67.912 17.155 67.328 16.885 67.001 17.591 70.593 19.25 71.305 17.706" fill="#333132"/><path d="M62.714,15.57l-.7-.192.35-1.29.7.19a1.782,1.782,0,0,0,2.421-1.217c.36-1.319-.6-2.04-1.671-2.332l-2.1-.571-.205.751.606.164-1.1,4.034-.606-.165-.2.75,2.308.628Zm.4-4.241.23.061c.161.045,1.457.249,1.143,1.4s-1.59.639-1.666.618l-.254-.069Z" fill="#333132"/><path d="M49.6,10.42l.1,4.179-.6.014.018.779,1.5-.036a8.911,8.911,0,0,0,1.255-.071,1.591,1.591,0,0,0,1.444-1.694,1.434,1.434,0,0,0-1.073-1.413A1.224,1.224,0,0,0,53.03,11c-.025-1.025-.662-1.422-2.013-1.39l-2.041.049.019.778Zm2.683,3.163c.017.74-.439.965-1.122.981l-.429.011-.047-1.939.612-.015A.933.933,0,0,1,52.282,13.583ZM51.13,10.367c.255-.005.852.028.868.688.016.644-.482.782-.92.793l-.412.009-.036-1.478Z" fill="#333132"/><path d="M11.237,46.149l3.773,2.3-.1.457.759.168.444-2.009-.76-.168-.133.606-1.011-.623.376-1.7,1.179-.138-.136.613.759.168.457-2.064-.759-.168-.1.426-4.382.455.134-.6-.76-.169-.64,2.894.76.168Zm.513-.733,2.032-.209L13.5,46.5l-1.751-1.063Z" fill="#333132"/><path d="M17.286,31.674a1.691,1.691,0,0,0,2.279-.356c.76-.644,1.083-1.155,1.736-.73a.857.857,0,0,1,.233,1.185,1.365,1.365,0,0,1-1.839.454l-.437.672L20.9,33.968l.454-.7-.3-.2a2.171,2.171,0,0,0,1.185-.936,1.719,1.719,0,0,0-.5-2.5,1.683,1.683,0,0,0-2.312.334c-.618.529-1.129,1.126-1.589.826a.74.74,0,0,1-.215-1.1,1.083,1.083,0,0,1,.677-.488,1.436,1.436,0,0,1,.839.08l.433-.666L18.137,27.7l-.454.7.3.193a1.738,1.738,0,0,0-1.047.723A1.671,1.671,0,0,0,17.286,31.674Z" fill="#333132"/><path d="M10.678,56.466v-.612l4.18,0v.611h.778V54.189H14.86v.637l-1.829,0V54.2c0-.421.056-1,.6-1h2.009V51.615H14.86v.556H13.565a.811.811,0,0,0-.915.707h-.015a1.278,1.278,0,0,0-1.3-.9,1.223,1.223,0,0,0-.779.253A1.994,1.994,0,0,0,9.9,54v2.464Zm0-2.192c0-.541,0-1.265.708-1.264.771,0,.866.573.866,1.145v.668H10.679Z" fill="#333132"/><path d="M13.138,38.771l3.836,1.662L16.731,41l.714.309.789-1.823a3.221,3.221,0,0,0,.2-2.5,2.811,2.811,0,0,0-1.469-1.6,2.915,2.915,0,0,0-2.552.072,3.1,3.1,0,0,0-1.421,1.705l-.811,1.873.713.309Zm.609-1.406a1.945,1.945,0,0,1,2.728-1.079A1.936,1.936,0,0,1,17.63,38.96l-.231.533-3.851-1.668Z" fill="#333132"/><path d="M34.714,14.729l1.78,3.949c.167.37.069.519-.17.626l-.247.112.418.926.428-.193c.81-.365.966-.889.538-1.837l-1.807-4.006.543-.245-.319-.71-2.078.938.32.709Z" fill="#333132"/><polygon points="89.361 37.622 89.179 37.079 88.442 37.325 89.129 39.382 89.866 39.136 89.663 38.525 93.266 37.321 93.27 37.336 90.047 39.922 90.248 40.525 94.376 40.645 94.38 40.661 90.779 41.864 90.574 41.254 89.837 41.5 90.522 43.55 91.259 43.303 91.081 42.768 95.045 41.442 95.224 41.978 95.962 41.731 95.305 39.765 91.808 39.677 91.803 39.662 94.571 37.572 93.881 35.507 93.144 35.754 93.325 36.296 89.361 37.622" fill="#333132"/><polygon points="92.039 46.63 91.979 46.021 91.205 46.097 91.635 50.493 93.343 50.325 93.254 49.416 92.321 49.508 92.14 47.657 93.959 47.479 94.115 49.069 95.016 48.981 94.859 47.39 96.3 47.249 96.481 49.101 95.745 49.173 95.834 50.081 97.345 49.933 96.914 45.537 96.14 45.613 96.199 46.222 92.039 46.63" fill="#333132"/><polygon points="85.826 31.383 85.52 30.854 84.846 31.243 87.06 35.065 88.545 34.206 88.087 33.416 87.276 33.886 86.343 32.276 87.925 31.36 88.726 32.743 89.509 32.289 88.708 30.907 89.96 30.181 90.893 31.791 90.253 32.162 90.71 32.951 92.024 32.191 89.81 28.37 89.137 28.759 89.444 29.288 85.826 31.383" fill="#333132"/><polygon points="94.793 63.05 95.585 63.286 95.379 63.98 91.372 62.787 91.569 62.123 90.824 61.901 90.135 64.217 90.88 64.439 91.077 63.776 95.084 64.969 94.877 65.663 94.085 65.427 93.825 66.301 95.362 66.76 96.591 62.633 95.053 62.175 94.793 63.05" fill="#333132"/><polygon points="96.813 54.148 92.652 53.74 92.704 53.209 91.93 53.134 91.723 55.252 92.497 55.328 92.559 54.688 96.134 55.038 96.132 55.053 91.555 56.961 91.475 57.791 96.409 58.274 96.351 58.867 97.125 58.943 97.333 56.817 96.559 56.741 96.502 57.326 93.757 57.057 93.758 57.041 97.455 55.566 97.639 53.693 96.865 53.617 96.813 54.148" fill="#333132"/><path d="M84.489,27.86l-.632-.713a1.694,1.694,0,0,1-1.89-.5,2.05,2.05,0,0,1,3.057-2.711,1.689,1.689,0,0,1,.409.881,1.259,1.259,0,0,1-.19.923l.553.624,1.39-1.233-.553-.624-.273.242a2.513,2.513,0,0,0-.628-1.45,2.836,2.836,0,0,0-4.147-.21,2.92,2.92,0,0,0-.33,4.19A2.5,2.5,0,0,0,84.489,27.86Z" fill="#333132"/><path d="M69.752,44.594a2.817,2.817,0,0,0,1.405-3.684,2.752,2.752,0,0,0-3.725-1.292A2.723,2.723,0,0,0,66.027,43.3,2.784,2.784,0,0,0,69.752,44.594ZM68.076,41a1.222,1.222,0,1,1-.666,1.656A1.214,1.214,0,0,1,68.076,41Z" fill="#333132"/><path d="M76.878,42.954a2.722,2.722,0,0,0-1.4,3.684A2.783,2.783,0,0,0,79.2,47.93,2.818,2.818,0,0,0,80.6,44.246,2.754,2.754,0,0,0,76.878,42.954Zm2.343,1.937a1.308,1.308,0,1,1-1.7-.554A1.214,1.214,0,0,1,79.221,44.891Z" fill="#333132"/><polygon points="74.467 36.299 73.346 36.823 72.328 51.359 73.433 50.844 74.467 36.299" fill="#333132"/><path d="M50.362,61.279c2.62,5.711.271,9.782-3.489,11.508-4.563,2.092-8.625.036-10.575-4.214l3.9-1.789c.961,2,2.618,3.225,4.846,2.2,1.777-.815,2.5-2.83.946-6.209l-1.326-2.891a6.946,6.946,0,0,1-3.445,3.52c-2.924,1.342-7.55.724-10.026-4.674-2.221-4.841-1.022-9.4,3.993-11.7A8.147,8.147,0,0,1,45.76,51.249Zm-15.1-4.707c1.166,2.542,3.436,3.355,5.108,2.588,1.706-.783,2.57-3.034,1.4-5.576s-3.436-3.355-5.143-2.572C34.959,51.779,34.1,54.03,35.261,56.572Z" fill="#333132"/><path d="M62.238,57.937,53.5,61.948l-1.742-3.8L53.8,39.173l3.761-1.725L64.54,52.667l2.473-1.135,1.6,3.482-2.473,1.134,1.182,2.578,2.473-1.134L71.311,60.9l-9.368,4.3-1.518-3.309,3-1.374Zm-1.6-3.481-4.074-8.881-.1.048-1.22,11.309Z" fill="#333132"/>
</svg>
