<svg xmlns="http://www.w3.org/2000/svg" viewBox="0 0 220.66 169.77">
    <path fill="#f696a1" d="M26.08,169.77a103.46,103.46,0,0,1-22.69-65C3.39,47,50.53,0,108.47,0S213.55,47,213.55,104.75a103.47,103.47,0,0,1-22.68,65l-.79-.62a102.48,102.48,0,0,0,22.47-64.4C212.55,47.54,165.86,1,108.47,1S4.39,47.54,4.39,104.75a102.48,102.48,0,0,0,22.47,64.4Z"/>
    <path fill="#f696a1" d="M210.88,147.79l-.92-.39a109.39,109.39,0,0,0,8.54-42.52h1a110.55,110.55,0,0,1-8.62,42.91ZM1,80.79l-1-.21a110.45,110.45,0,0,1,57-74l.46.89A109.45,109.45,0,0,0,1,80.79Z"/>
    <rect fill="#f696a1" x="211.59" y="116.53" width="1" height="30.31" transform="translate(-37.33 121.24) rotate(-29.44)"/><rect fill="#f696a1" x="212.28" y="109.66" width="1" height="30.31" transform="translate(-33.87 120.69) rotate(-29.44)"/>
    <rect fill="#f696a1" x="22.73" y="24.65" width="1" height="30.31" transform="translate(-16.56 16.56) rotate(-29.44)"/>
    <rect fill="#f696a1" x="23.42" y="17.78" width="1" height="30.31" transform="translate(-13.1 16.01) rotate(-29.44)"/>
</svg>
