<svg xmlns="http://www.w3.org/2000/svg" viewBox="0 0 211 169.77">
    <path fill="#00ab67" d="M22.57,169.77A103.74,103.74,0,0,1,0,104.79a104.82,104.82,0,0,1,209.63,0,103.7,103.7,0,0,1-22.56,65l-.78-.62a102.76,102.76,0,0,0,22.34-64.34A103.82,103.82,0,0,0,1,104.79a102.68,102.68,0,0,0,22.36,64.36Z"/>
    <path fill="#00ab67" d="M40,38A13.9,13.9,0,1,1,53.84,24.14,13.9,13.9,0,0,1,40,38Zm0-26.79a12.9,12.9,0,1,0,12.88,12.9A12.91,12.91,0,0,0,40,11.24Z"/>
    <path fill="#00ab67" d="M203,150.67a8.06,8.06,0,1,1,8.05-8.06A8.06,8.06,0,0,1,203,150.67Zm0-15.11a7.06,7.06,0,1,0,7.05,7.05A7.05,7.05,0,0,0,203,135.56Z"/>
    <path fill="#00ab67" d="M19.72,20.17a4.62,4.62,0,1,1,4.61-4.62A4.62,4.62,0,0,1,19.72,20.17Zm0-8.24a3.62,3.62,0,1,0,3.61,3.62A3.62,3.62,0,0,0,19.72,11.93Z"/>
    <path fill="#00ab67" d="M37.56,7.81a2.56,2.56,0,1,1,2.56-2.56A2.56,2.56,0,0,1,37.56,7.81Zm0-4.12a1.56,1.56,0,1,0,1.56,1.56A1.56,1.56,0,0,0,37.56,3.69Z"/>
</svg>
