<svg xmlns="http://www.w3.org/2000/svg" viewBox="0 0 215.18 170.46">
    <clipPath id="clip-path">
      <path fill="#08bad8" d="M186.79,19.17h-7.88V11.3h7.88Zm-6.88-1h5.88V12.3h-5.88Z"/>
    </clipPath>
    <clipPath id="clip-path-2">
      <path fill="#08bad8" d="M7.88,148.3H0v-7.87H7.88ZM1,147.3H6.88v-5.87H1Z"/>
    </clipPath>
    <path fill="#08bad8" d="M192.27,170.46l-.78-.62A102.84,102.84,0,0,0,214.18,105,104.09,104.09,0,0,0,6,105a102.81,102.81,0,0,0,22.4,64.46l-.79.62A103.86,103.86,0,0,1,5,105a105.09,105.09,0,0,1,210.18,0A103.82,103.82,0,0,1,192.27,170.46Z"/>
    <rect fill="#08bad8" x="167.03" y="3.19" width="1" height="25.73"/>
    <rect fill="#08bad8" x="174.5" y="28.5" width="25.73" height="1"/>
    <rect fill="#08bad8" x="180.63" y="24.8" width="1" height="14.79"/>
    <rect fill="#08bad8" x="158.45" y="17.83" width="14.82" height="1"/>
    <path fill="#08bad8" d="M186.79,19.17h-7.88V11.3h7.88Zm-6.88-1h5.88V12.3h-5.88Z"/>
    <path fill="#08bad8" d="M186.79,19.17h-7.88V11.3h7.88Zm-6.88-1h5.88V12.3h-5.88Z"/>
    <path fill="#08bad8" d="M7.88,148.3H0v-7.87H7.88ZM1,147.3H6.88v-5.87H1Z"/>
    <path fill="#08bad8" d="M7.88,148.3H0v-7.87H7.88ZM1,147.3H6.88v-5.87H1Z"/>
</svg>
